{"metadata": {"name": "Metadata", "schema_version": "0.2", "title": "Nighean Dubh Alasdair", "creators": [], "copyright": null, "collection": null, "source_filename": "Qma113RUUvApyeCqFzReRGQgzyoTbvx5sgm91MGkokDcMW.mscz", "source_format": "musescore", "subtitle": null}, "resolution": 480, "tempos": [{"name": "Tempo", "time": 0, "qpm": 120.0, "measure": null, "text": ""}], "key_signatures": [{"name": "KeySignature", "time": 0, "root": 9, "mode": "major", "fifths": 3, "root_str": "A", "measure": 1}, {"name": "KeySignature", "time": 7680, "root": 9, "mode": "major", "fifths": 3, "root_str": "A", "measure": 1}], "time_signatures": [{"name": "TimeSignature", "time": 0, "numerator": 4, "denominator": 4, "measure": 1}, {"name": "TimeSignature", "time": 7680, "numerator": 4, "denominator": 4, "measure": 1}], "beats": [{"name": "Beat", "time": 0, "measure": 1, "is_downbeat": true}, {"name": "Beat", "time": 240, "measure": 2, "is_downbeat": true}, {"name": "Beat", "time": 720, "measure": 2, "is_downbeat": false}, {"name": "Beat", "time": 1200, "measure": 2, "is_downbeat": false}, {"name": "Beat", "time": 1680, "measure": 2, "is_downbeat": false}, {"name": "Beat", "time": 2160, "measure": 3, "is_downbeat": true}, {"name": "Beat", "time": 2640, "measure": 3, "is_downbeat": false}, {"name": "Beat", "time": 3120, "measure": 3, "is_downbeat": false}, {"name": "Beat", "time": 3600, "measure": 3, "is_downbeat": false}, {"name": "Beat", "time": 4080, "measure": 4, "is_downbeat": true}, {"name": "Beat", "time": 4560, "measure": 4, "is_downbeat": false}, {"name": "Beat", "time": 5040, "measure": 4, "is_downbeat": false}, {"name": "Beat", "time": 5520, "measure": 4, "is_downbeat": false}, {"name": "Beat", "time": 6000, "measure": 5, "is_downbeat": true}, {"name": "Beat", "time": 6480, "measure": 5, "is_downbeat": false}, {"name": "Beat", "time": 6960, "measure": 5, "is_downbeat": false}, {"name": "Beat", "time": 7440, "measure": 5, "is_downbeat": false}, {"name": "Beat", "time": 7680, "measure": 1, "is_downbeat": true}, {"name": "Beat", "time": 7920, "measure": 2, "is_downbeat": true}, {"name": "Beat", "time": 8400, "measure": 2, "is_downbeat": false}, {"name": "Beat", "time": 8880, "measure": 2, "is_downbeat": false}, {"name": "Beat", "time": 9360, "measure": 2, "is_downbeat": false}, {"name": "Beat", "time": 9840, "measure": 3, "is_downbeat": true}, {"name": "Beat", "time": 10320, "measure": 3, "is_downbeat": false}, {"name": "Beat", "time": 10800, "measure": 3, "is_downbeat": false}, {"name": "Beat", "time": 11280, "measure": 3, "is_downbeat": false}, {"name": "Beat", "time": 11760, "measure": 4, "is_downbeat": true}, {"name": "Beat", "time": 12240, "measure": 4, "is_downbeat": false}, {"name": "Beat", "time": 12720, "measure": 4, "is_downbeat": false}, {"name": "Beat", "time": 13200, "measure": 4, "is_downbeat": false}, {"name": "Beat", "time": 13680, "measure": 5, "is_downbeat": true}, {"name": "Beat", "time": 14160, "measure": 5, "is_downbeat": false}, {"name": "Beat", "time": 14640, "measure": 5, "is_downbeat": false}, {"name": "Beat", "time": 15120, "measure": 5, "is_downbeat": false}, {"name": "Beat", "time": 15360, "measure": 6, "is_downbeat": true}, {"name": "Beat", "time": 15600, "measure": 7, "is_downbeat": true}, {"name": "Beat", "time": 16080, "measure": 7, "is_downbeat": false}, {"name": "Beat", "time": 16560, "measure": 7, "is_downbeat": false}, {"name": "Beat", "time": 17040, "measure": 7, "is_downbeat": false}, {"name": "Beat", "time": 17520, "measure": 8, "is_downbeat": true}, {"name": "Beat", "time": 18000, "measure": 8, "is_downbeat": false}, {"name": "Beat", "time": 18480, "measure": 8, "is_downbeat": false}, {"name": "Beat", "time": 18960, "measure": 8, "is_downbeat": false}, {"name": "Beat", "time": 19440, "measure": 9, "is_downbeat": true}, {"name": "Beat", "time": 19920, "measure": 9, "is_downbeat": false}, {"name": "Beat", "time": 20400, "measure": 9, "is_downbeat": false}, {"name": "Beat", "time": 20880, "measure": 9, "is_downbeat": false}, {"name": "Beat", "time": 21360, "measure": 10, "is_downbeat": true}, {"name": "Beat", "time": 21840, "measure": 10, "is_downbeat": false}, {"name": "Beat", "time": 22320, "measure": 10, "is_downbeat": false}, {"name": "Beat", "time": 22800, "measure": 10, "is_downbeat": false}, {"name": "Beat", "time": 23280, "measure": 11, "is_downbeat": true}, {"name": "Beat", "time": 23760, "measure": 11, "is_downbeat": false}, {"name": "Beat", "time": 24240, "measure": 11, "is_downbeat": false}, {"name": "Beat", "time": 24720, "measure": 11, "is_downbeat": false}, {"name": "Beat", "time": 25200, "measure": 12, "is_downbeat": true}, {"name": "Beat", "time": 25680, "measure": 12, "is_downbeat": false}, {"name": "Beat", "time": 26160, "measure": 12, "is_downbeat": false}, {"name": "Beat", "time": 26640, "measure": 12, "is_downbeat": false}, {"name": "Beat", "time": 27120, "measure": 13, "is_downbeat": true}, {"name": "Beat", "time": 27600, "measure": 13, "is_downbeat": false}, {"name": "Beat", "time": 28080, "measure": 13, "is_downbeat": false}, {"name": "Beat", "time": 28560, "measure": 13, "is_downbeat": false}, {"name": "Beat", "time": 29040, "measure": 14, "is_downbeat": true}, {"name": "Beat", "time": 29520, "measure": 14, "is_downbeat": false}, {"name": "Beat", "time": 30000, "measure": 14, "is_downbeat": false}, {"name": "Beat", "time": 30480, "measure": 14, "is_downbeat": false}], "barlines": [{"name": "Barline", "time": 0, "measure": 1, "subtype": "single"}, {"name": "Barline", "time": 240, "measure": 2, "subtype": "single"}, {"name": "Barline", "time": 2160, "measure": 3, "subtype": "single"}, {"name": "Barline", "time": 4080, "measure": 4, "subtype": "single"}, {"name": "Barline", "time": 6000, "measure": 5, "subtype": "single"}, {"name": "Barline", "time": 7680, "measure": 1, "subtype": "single"}, {"name": "Barline", "time": 7920, "measure": 2, "subtype": "single"}, {"name": "Barline", "time": 9840, "measure": 3, "subtype": "single"}, {"name": "Barline", "time": 11760, "measure": 4, "subtype": "single"}, {"name": "Barline", "time": 13680, "measure": 5, "subtype": "single"}, {"name": "Barline", "time": 15360, "measure": 6, "subtype": "single"}, {"name": "Barline", "time": 15600, "measure": 7, "subtype": "single"}, {"name": "Barline", "time": 17520, "measure": 8, "subtype": "single"}, {"name": "Barline", "time": 19440, "measure": 9, "subtype": "single"}, {"name": "Barline", "time": 21360, "measure": 10, "subtype": "single"}, {"name": "Barline", "time": 23280, "measure": 11, "subtype": "single"}, {"name": "Barline", "time": 25200, "measure": 12, "subtype": "single"}, {"name": "Barline", "time": 27120, "measure": 13, "subtype": "single"}, {"name": "Barline", "time": 29040, "measure": 14, "subtype": "double"}], "lyrics": [], "annotations": [], "tracks": [{"name": null, "program": 0, "is_drum": false, "notes": [{"name": "Note", "time": 0, "pitch": 81, "duration": 240, "velocity": 64, "pitch_str": "A", "measure": 1, "is_grace": false}, {"name": "Note", "time": 240, "pitch": 69, "duration": 120, "velocity": 64, "pitch_str": "A", "measure": 2, "is_grace": false}, {"name": "Note", "time": 360, "pitch": 69, "duration": 120, "velocity": 64, "pitch_str": "A", "measure": 2, "is_grace": false}, {"name": "Note", "time": 480, "pitch": 69, "duration": 240, "velocity": 64, "pitch_str": "A", "measure": 2, "is_grace": false}, {"name": "Note", "time": 720, "pitch": 69, "duration": 360, "velocity": 64, "pitch_str": "A", "measure": 2, "is_grace": false}, {"name": "Note", "time": 1080, "pitch": 71, "duration": 120, "velocity": 64, "pitch_str": "B", "measure": 2, "is_grace": false}, {"name": "Note", "time": 1200, "pitch": 72, "duration": 360, "velocity": 64, "pitch_str": "C", "measure": 2, "is_grace": false}, {"name": "Note", "time": 1560, "pitch": 69, "duration": 120, "velocity": 64, "pitch_str": "A", "measure": 2, "is_grace": false}, {"name": "Note", "time": 1680, "pitch": 71, "duration": 360, "velocity": 64, "pitch_str": "B", "measure": 2, "is_grace": false}, {"name": "Note", "time": 2040, "pitch": 74, "duration": 120, "velocity": 64, "pitch_str": "D", "measure": 2, "is_grace": false}, {"name": "Note", "time": 2160, "pitch": 76, "duration": 360, "velocity": 64, "pitch_str": "E", "measure": 3, "is_grace": false}, {"name": "Note", "time": 2520, "pitch": 69, "duration": 120, "velocity": 64, "pitch_str": "A", "measure": 3, "is_grace": false}, {"name": "Note", "time": 2640, "pitch": 69, "duration": 360, "velocity": 64, "pitch_str": "A", "measure": 3, "is_grace": false}, {"name": "Note", "time": 3000, "pitch": 71, "duration": 120, "velocity": 64, "pitch_str": "B", "measure": 3, "is_grace": false}, {"name": "Note", "time": 3120, "pitch": 74, "duration": 120, "velocity": 64, "pitch_str": "D", "measure": 3, "is_grace": false}, {"name": "Note", "time": 3240, "pitch": 73, "duration": 120, "velocity": 64, "pitch_str": "C#", "measure": 3, "is_grace": false}, {"name": "Note", "time": 3360, "pitch": 71, "duration": 120, "velocity": 64, "pitch_str": "B", "measure": 3, "is_grace": false}, {"name": "Note", "time": 3480, "pitch": 69, "duration": 120, "velocity": 64, "pitch_str": "A", "measure": 3, "is_grace": false}, {"name": "Note", "time": 3600, "pitch": 67, "duration": 360, "velocity": 64, "pitch_str": "G", "measure": 3, "is_grace": false}, {"name": "Note", "time": 3960, "pitch": 71, "duration": 120, "velocity": 64, "pitch_str": "B", "measure": 3, "is_grace": false}, {"name": "Note", "time": 4080, "pitch": 69, "duration": 120, "velocity": 64, "pitch_str": "A", "measure": 4, "is_grace": false}, {"name": "Note", "time": 4200, "pitch": 69, "duration": 120, "velocity": 64, "pitch_str": "A", "measure": 4, "is_grace": false}, {"name": "Note", "time": 4320, "pitch": 69, "duration": 240, "velocity": 64, "pitch_str": "A", "measure": 4, "is_grace": false}, {"name": "Note", "time": 4560, "pitch": 69, "duration": 360, "velocity": 64, "pitch_str": "A", "measure": 4, "is_grace": false}, {"name": "Note", "time": 4920, "pitch": 71, "duration": 120, "velocity": 64, "pitch_str": "B", "measure": 4, "is_grace": false}, {"name": "Note", "time": 5040, "pitch": 72, "duration": 360, "velocity": 64, "pitch_str": "C", "measure": 4, "is_grace": false}, {"name": "Note", "time": 5400, "pitch": 69, "duration": 120, "velocity": 64, "pitch_str": "A", "measure": 4, "is_grace": false}, {"name": "Note", "time": 5520, "pitch": 71, "duration": 360, "velocity": 64, "pitch_str": "B", "measure": 4, "is_grace": false}, {"name": "Note", "time": 5880, "pitch": 74, "duration": 120, "velocity": 64, "pitch_str": "D", "measure": 4, "is_grace": false}, {"name": "Note", "time": 6000, "pitch": 76, "duration": 240, "velocity": 64, "pitch_str": "E", "measure": 5, "is_grace": false}, {"name": "Note", "time": 6240, "pitch": 69, "duration": 240, "velocity": 64, "pitch_str": "A", "measure": 5, "is_grace": false}, {"name": "Note", "time": 6480, "pitch": 69, "duration": 240, "velocity": 64, "pitch_str": "A", "measure": 5, "is_grace": false}, {"name": "Note", "time": 6720, "pitch": 71, "duration": 240, "velocity": 64, "pitch_str": "B", "measure": 5, "is_grace": false}, {"name": "Note", "time": 6960, "pitch": 67, "duration": 240, "velocity": 64, "pitch_str": "G", "measure": 5, "is_grace": false}, {"name": "Note", "time": 7200, "pitch": 64, "duration": 240, "velocity": 64, "pitch_str": "E", "measure": 5, "is_grace": false}, {"name": "Note", "time": 7440, "pitch": 64, "duration": 240, "velocity": 64, "pitch_str": "E", "measure": 5, "is_grace": false}, {"name": "Note", "time": 7680, "pitch": 81, "duration": 240, "velocity": 64, "pitch_str": "A", "measure": 1, "is_grace": false}, {"name": "Note", "time": 7920, "pitch": 69, "duration": 120, "velocity": 64, "pitch_str": "A", "measure": 2, "is_grace": false}, {"name": "Note", "time": 8040, "pitch": 69, "duration": 120, "velocity": 64, "pitch_str": "A", "measure": 2, "is_grace": false}, {"name": "Note", "time": 8160, "pitch": 69, "duration": 240, "velocity": 64, "pitch_str": "A", "measure": 2, "is_grace": false}, {"name": "Note", "time": 8400, "pitch": 69, "duration": 360, "velocity": 64, "pitch_str": "A", "measure": 2, "is_grace": false}, {"name": "Note", "time": 8760, "pitch": 71, "duration": 120, "velocity": 64, "pitch_str": "B", "measure": 2, "is_grace": false}, {"name": "Note", "time": 8880, "pitch": 72, "duration": 360, "velocity": 64, "pitch_str": "C", "measure": 2, "is_grace": false}, {"name": "Note", "time": 9240, "pitch": 69, "duration": 120, "velocity": 64, "pitch_str": "A", "measure": 2, "is_grace": false}, {"name": "Note", "time": 9360, "pitch": 71, "duration": 360, "velocity": 64, "pitch_str": "B", "measure": 2, "is_grace": false}, {"name": "Note", "time": 9720, "pitch": 74, "duration": 120, "velocity": 64, "pitch_str": "D", "measure": 2, "is_grace": false}, {"name": "Note", "time": 9840, "pitch": 76, "duration": 360, "velocity": 64, "pitch_str": "E", "measure": 3, "is_grace": false}, {"name": "Note", "time": 10200, "pitch": 69, "duration": 120, "velocity": 64, "pitch_str": "A", "measure": 3, "is_grace": false}, {"name": "Note", "time": 10320, "pitch": 69, "duration": 360, "velocity": 64, "pitch_str": "A", "measure": 3, "is_grace": false}, {"name": "Note", "time": 10680, "pitch": 71, "duration": 120, "velocity": 64, "pitch_str": "B", "measure": 3, "is_grace": false}, {"name": "Note", "time": 10800, "pitch": 74, "duration": 120, "velocity": 64, "pitch_str": "D", "measure": 3, "is_grace": false}, {"name": "Note", "time": 10920, "pitch": 73, "duration": 120, "velocity": 64, "pitch_str": "C#", "measure": 3, "is_grace": false}, {"name": "Note", "time": 11040, "pitch": 71, "duration": 120, "velocity": 64, "pitch_str": "B", "measure": 3, "is_grace": false}, {"name": "Note", "time": 11160, "pitch": 69, "duration": 120, "velocity": 64, "pitch_str": "A", "measure": 3, "is_grace": false}, {"name": "Note", "time": 11280, "pitch": 67, "duration": 360, "velocity": 64, "pitch_str": "G", "measure": 3, "is_grace": false}, {"name": "Note", "time": 11640, "pitch": 71, "duration": 120, "velocity": 64, "pitch_str": "B", "measure": 3, "is_grace": false}, {"name": "Note", "time": 11760, "pitch": 69, "duration": 120, "velocity": 64, "pitch_str": "A", "measure": 4, "is_grace": false}, {"name": "Note", "time": 11880, "pitch": 69, "duration": 120, "velocity": 64, "pitch_str": "A", "measure": 4, "is_grace": false}, {"name": "Note", "time": 12000, "pitch": 69, "duration": 240, "velocity": 64, "pitch_str": "A", "measure": 4, "is_grace": false}, {"name": "Note", "time": 12240, "pitch": 69, "duration": 360, "velocity": 64, "pitch_str": "A", "measure": 4, "is_grace": false}, {"name": "Note", "time": 12600, "pitch": 71, "duration": 120, "velocity": 64, "pitch_str": "B", "measure": 4, "is_grace": false}, {"name": "Note", "time": 12720, "pitch": 72, "duration": 360, "velocity": 64, "pitch_str": "C", "measure": 4, "is_grace": false}, {"name": "Note", "time": 13080, "pitch": 69, "duration": 120, "velocity": 64, "pitch_str": "A", "measure": 4, "is_grace": false}, {"name": "Note", "time": 13200, "pitch": 71, "duration": 360, "velocity": 64, "pitch_str": "B", "measure": 4, "is_grace": false}, {"name": "Note", "time": 13560, "pitch": 74, "duration": 120, "velocity": 64, "pitch_str": "D", "measure": 4, "is_grace": false}, {"name": "Note", "time": 13680, "pitch": 76, "duration": 240, "velocity": 64, "pitch_str": "E", "measure": 5, "is_grace": false}, {"name": "Note", "time": 13920, "pitch": 69, "duration": 240, "velocity": 64, "pitch_str": "A", "measure": 5, "is_grace": false}, {"name": "Note", "time": 14160, "pitch": 69, "duration": 240, "velocity": 64, "pitch_str": "A", "measure": 5, "is_grace": false}, {"name": "Note", "time": 14400, "pitch": 71, "duration": 240, "velocity": 64, "pitch_str": "B", "measure": 5, "is_grace": false}, {"name": "Note", "time": 14640, "pitch": 67, "duration": 240, "velocity": 64, "pitch_str": "G", "measure": 5, "is_grace": false}, {"name": "Note", "time": 14880, "pitch": 64, "duration": 240, "velocity": 64, "pitch_str": "E", "measure": 5, "is_grace": false}, {"name": "Note", "time": 15120, "pitch": 64, "duration": 240, "velocity": 64, "pitch_str": "E", "measure": 5, "is_grace": false}, {"name": "Note", "time": 15360, "pitch": 81, "duration": 240, "velocity": 64, "pitch_str": "A", "measure": 6, "is_grace": false}, {"name": "Note", "time": 15600, "pitch": 80, "duration": 120, "velocity": 64, "pitch_str": "G#", "measure": 7, "is_grace": false}, {"name": "Note", "time": 15720, "pitch": 76, "duration": 360, "velocity": 64, "pitch_str": "E", "measure": 7, "is_grace": false}, {"name": "Note", "time": 16080, "pitch": 76, "duration": 360, "velocity": 64, "pitch_str": "E", "measure": 7, "is_grace": false}, {"name": "Note", "time": 16440, "pitch": 80, "duration": 120, "velocity": 64, "pitch_str": "G#", "measure": 7, "is_grace": false}, {"name": "Note", "time": 16560, "pitch": 74, "duration": 360, "velocity": 64, "pitch_str": "D", "measure": 7, "is_grace": false}, {"name": "Note", "time": 16920, "pitch": 76, "duration": 120, "velocity": 64, "pitch_str": "E", "measure": 7, "is_grace": false}, {"name": "Note", "time": 17040, "pitch": 74, "duration": 360, "velocity": 64, "pitch_str": "D", "measure": 7, "is_grace": false}, {"name": "Note", "time": 17400, "pitch": 71, "duration": 120, "velocity": 64, "pitch_str": "B", "measure": 7, "is_grace": false}, {"name": "Note", "time": 17520, "pitch": 79, "duration": 120, "velocity": 64, "pitch_str": "G", "measure": 8, "is_grace": false}, {"name": "Note", "time": 17640, "pitch": 76, "duration": 360, "velocity": 64, "pitch_str": "E", "measure": 8, "is_grace": false}, {"name": "Note", "time": 18000, "pitch": 76, "duration": 360, "velocity": 64, "pitch_str": "E", "measure": 8, "is_grace": false}, {"name": "Note", "time": 18360, "pitch": 78, "duration": 120, "velocity": 64, "pitch_str": "F#", "measure": 8, "is_grace": false}, {"name": "Note", "time": 18480, "pitch": 79, "duration": 360, "velocity": 64, "pitch_str": "G", "measure": 8, "is_grace": false}, {"name": "Note", "time": 18840, "pitch": 81, "duration": 120, "velocity": 64, "pitch_str": "A", "measure": 8, "is_grace": false}, {"name": "Note", "time": 18960, "pitch": 83, "duration": 360, "velocity": 64, "pitch_str": "B", "measure": 8, "is_grace": false}, {"name": "Note", "time": 19320, "pitch": 81, "duration": 120, "velocity": 64, "pitch_str": "A", "measure": 8, "is_grace": false}, {"name": "Note", "time": 19440, "pitch": 79, "duration": 120, "velocity": 64, "pitch_str": "G", "measure": 9, "is_grace": false}, {"name": "Note", "time": 19560, "pitch": 76, "duration": 360, "velocity": 64, "pitch_str": "E", "measure": 9, "is_grace": false}, {"name": "Note", "time": 19920, "pitch": 76, "duration": 360, "velocity": 64, "pitch_str": "E", "measure": 9, "is_grace": false}, {"name": "Note", "time": 20280, "pitch": 79, "duration": 120, "velocity": 64, "pitch_str": "G", "measure": 9, "is_grace": false}, {"name": "Note", "time": 20400, "pitch": 74, "duration": 360, "velocity": 64, "pitch_str": "D", "measure": 9, "is_grace": false}, {"name": "Note", "time": 20760, "pitch": 76, "duration": 120, "velocity": 64, "pitch_str": "E", "measure": 9, "is_grace": false}, {"name": "Note", "time": 20880, "pitch": 74, "duration": 360, "velocity": 64, "pitch_str": "D", "measure": 9, "is_grace": false}, {"name": "Note", "time": 21240, "pitch": 71, "duration": 120, "velocity": 64, "pitch_str": "B", "measure": 9, "is_grace": false}, {"name": "Note", "time": 21360, "pitch": 76, "duration": 120, "velocity": 64, "pitch_str": "E", "measure": 10, "is_grace": false}, {"name": "Note", "time": 21480, "pitch": 69, "duration": 360, "velocity": 64, "pitch_str": "A", "measure": 10, "is_grace": false}, {"name": "Note", "time": 21840, "pitch": 69, "duration": 360, "velocity": 64, "pitch_str": "A", "measure": 10, "is_grace": false}, {"name": "Note", "time": 22200, "pitch": 71, "duration": 120, "velocity": 64, "pitch_str": "B", "measure": 10, "is_grace": false}, {"name": "Note", "time": 22320, "pitch": 67, "duration": 120, "velocity": 64, "pitch_str": "G", "measure": 10, "is_grace": false}, {"name": "Note", "time": 22440, "pitch": 64, "duration": 360, "velocity": 64, "pitch_str": "E", "measure": 10, "is_grace": false}, {"name": "Note", "time": 22800, "pitch": 64, "duration": 360, "velocity": 64, "pitch_str": "E", "measure": 10, "is_grace": false}, {"name": "Note", "time": 23160, "pitch": 81, "duration": 120, "velocity": 64, "pitch_str": "A", "measure": 10, "is_grace": false}, {"name": "Note", "time": 23280, "pitch": 79, "duration": 120, "velocity": 64, "pitch_str": "G", "measure": 11, "is_grace": false}, {"name": "Note", "time": 23400, "pitch": 76, "duration": 360, "velocity": 64, "pitch_str": "E", "measure": 11, "is_grace": false}, {"name": "Note", "time": 23760, "pitch": 76, "duration": 360, "velocity": 64, "pitch_str": "E", "measure": 11, "is_grace": false}, {"name": "Note", "time": 24120, "pitch": 79, "duration": 120, "velocity": 64, "pitch_str": "G", "measure": 11, "is_grace": false}, {"name": "Note", "time": 24240, "pitch": 74, "duration": 360, "velocity": 64, "pitch_str": "D", "measure": 11, "is_grace": false}, {"name": "Note", "time": 24600, "pitch": 76, "duration": 120, "velocity": 64, "pitch_str": "E", "measure": 11, "is_grace": false}, {"name": "Note", "time": 24720, "pitch": 74, "duration": 360, "velocity": 64, "pitch_str": "D", "measure": 11, "is_grace": false}, {"name": "Note", "time": 25080, "pitch": 71, "duration": 120, "velocity": 64, "pitch_str": "B", "measure": 11, "is_grace": false}, {"name": "Note", "time": 25200, "pitch": 79, "duration": 120, "velocity": 64, "pitch_str": "G", "measure": 12, "is_grace": false}, {"name": "Note", "time": 25320, "pitch": 76, "duration": 360, "velocity": 64, "pitch_str": "E", "measure": 12, "is_grace": false}, {"name": "Note", "time": 25680, "pitch": 76, "duration": 360, "velocity": 64, "pitch_str": "E", "measure": 12, "is_grace": false}, {"name": "Note", "time": 26040, "pitch": 79, "duration": 120, "velocity": 64, "pitch_str": "G", "measure": 12, "is_grace": false}, {"name": "Note", "time": 26160, "pitch": 79, "duration": 240, "velocity": 64, "pitch_str": "G", "measure": 12, "is_grace": false}, {"name": "Note", "time": 26400, "pitch": 81, "duration": 240, "velocity": 64, "pitch_str": "A", "measure": 12, "is_grace": false}, {"name": "Note", "time": 26640, "pitch": 83, "duration": 240, "velocity": 64, "pitch_str": "B", "measure": 12, "is_grace": false}, {"name": "Note", "time": 26880, "pitch": 81, "duration": 240, "velocity": 64, "pitch_str": "A", "measure": 12, "is_grace": false}, {"name": "Note", "time": 27120, "pitch": 79, "duration": 120, "velocity": 64, "pitch_str": "G", "measure": 13, "is_grace": false}, {"name": "Note", "time": 27240, "pitch": 83, "duration": 360, "velocity": 64, "pitch_str": "B", "measure": 13, "is_grace": false}, {"name": "Note", "time": 27600, "pitch": 76, "duration": 120, "velocity": 64, "pitch_str": "E", "measure": 13, "is_grace": false}, {"name": "Note", "time": 27720, "pitch": 79, "duration": 360, "velocity": 64, "pitch_str": "G", "measure": 13, "is_grace": false}, {"name": "Note", "time": 28080, "pitch": 74, "duration": 120, "velocity": 64, "pitch_str": "D", "measure": 13, "is_grace": false}, {"name": "Note", "time": 28200, "pitch": 79, "duration": 360, "velocity": 64, "pitch_str": "G", "measure": 13, "is_grace": false}, {"name": "Note", "time": 28560, "pitch": 71, "duration": 120, "velocity": 64, "pitch_str": "B", "measure": 13, "is_grace": false}, {"name": "Note", "time": 28680, "pitch": 83, "duration": 360, "velocity": 64, "pitch_str": "B", "measure": 13, "is_grace": false}, {"name": "Note", "time": 29040, "pitch": 76, "duration": 120, "velocity": 64, "pitch_str": "E", "measure": 14, "is_grace": false}, {"name": "Note", "time": 29160, "pitch": 69, "duration": 360, "velocity": 64, "pitch_str": "A", "measure": 14, "is_grace": false}, {"name": "Note", "time": 29520, "pitch": 69, "duration": 360, "velocity": 64, "pitch_str": "A", "measure": 14, "is_grace": false}, {"name": "Note", "time": 29880, "pitch": 71, "duration": 120, "velocity": 64, "pitch_str": "B", "measure": 14, "is_grace": false}, {"name": "Note", "time": 30000, "pitch": 67, "duration": 240, "velocity": 64, "pitch_str": "G", "measure": 14, "is_grace": false}, {"name": "Note", "time": 30240, "pitch": 64, "duration": 240, "velocity": 64, "pitch_str": "E", "measure": 14, "is_grace": false}, {"name": "Note", "time": 30480, "pitch": 64, "duration": 240, "velocity": 64, "pitch_str": "E", "measure": 14, "is_grace": false}], "chords": [], "lyrics": [], "annotations": []}], "song_length": 30721, "infer_velocity": true, "absolute_time": false}